<svg width="24" height="24" viewBox="0 0 24 24" fill="none" xmlns="http://www.w3.org/2000/svg">
<rect width="24" height="24" rx="6" fill="#D5E5F1"/>
<path d="M11.0489 6.92705C11.3483 6.00574 12.6517 6.00574 12.9511 6.92705L13.5716 8.83688C13.7055 9.2489 14.0894 9.52786 14.5227 9.52786H16.5308C17.4995 9.52786 17.9023 10.7675 17.1186 11.3369L15.494 12.5172C15.1435 12.7719 14.9968 13.2232 15.1307 13.6353L15.7512 15.5451C16.0506 16.4664 14.9961 17.2325 14.2124 16.6631L12.5878 15.4828C12.2373 15.2281 11.7627 15.2281 11.4122 15.4828L9.78761 16.6631C9.0039 17.2325 7.94942 16.4664 8.24878 15.5451L8.86932 13.6353C9.00319 13.2232 8.85653 12.7719 8.50604 12.5172L6.88144 11.3369C6.09773 10.7675 6.50051 9.52786 7.46923 9.52786H9.47735C9.91057 9.52786 10.2945 9.2489 10.4284 8.83688L11.0489 6.92705Z" fill="#449FE5"/>
</svg>
